# xmcd CD database file
#
# Track frame offsets:
#	150
#	15340
#	28877
#	49576
#	63328
#	79576
#	92205
#	107342
#	122177
#	135261
#	149430
#	180151
#	193284
#	207107
#	225846
#	237909
#	258719
#	272184
#	282465
#	294244
#	308093
#
# Disc length: 4286 seconds
#
# Revision: 0
# Processed by: cddbd v1.5.1PL0 Copyright (c) Steve Scherf et al.
# Submitted via: CDex 1.51
#
DISCID=2210bc15
DTITLE=Kayser - Ragtime
DYEAR=1999
DGENRE=Jazz
TTITLE0=A Breeze From Alabama
TTITLE1=Elite Syncopations
TTITLE2=Eugenia
TTITLE3=Euphonic Sounds
TTITLE4=Fig Leaf Rag
TTITLE5=Maple Leaf Rag
TTITLE6=New Rag)
TTITLE7=Palm Leaf Rag
TTITLE8=Peacherine Rag
TTITLE9=Rag Time Dance
TTITLE10=Solace
TTITLE11=Something Doing
TTITLE12=Sunflower Slow Drag
TTITLE13=Swipesy
TTITLE14=The Cascades
TTITLE15=The Chrysanthemum
TTITLE16=The Easy Winners
TTITLE17=The Entertainer
TTITLE18=The Sycamore
TTITLE19=Wall Street Rag
TTITLE20=Weeping Willow
EXTD=YEAR: 1999
EXTT0=
EXTT1=
EXTT2=
EXTT3=
EXTT4=
EXTT5=
EXTT6=
EXTT7=
EXTT8=
EXTT9=
EXTT10=
EXTT11=
EXTT12=
EXTT13=
EXTT14=
EXTT15=
EXTT16=
EXTT17=
EXTT18=
EXTT19=
EXTT20=
PLAYORDER=
